<?xml version="1.0" encoding="UTF-8" standalone="no"?>
<svg
   width="75.216545mm"
   height="79.703049mm"
   viewBox="0 0 75.216545 79.703049"
   version="1.1"
   id="svg1"
   xml:space="preserve"
   xmlns="http://www.w3.org/2000/svg"
   xmlns:svg="http://www.w3.org/2000/svg"><defs
     id="defs1" /><g
     id="layer1"
     transform="translate(-63.680398,-122.30799)"><path
       style="fill:#000000"
       d="m 96.212271,201.72352 c -5.31634,-0.78836 -11.49157,-3.06602 -16.45868,-6.07059 -3.10426,-1.87775 -7.60869,-5.86074 -9.10941,-8.05491 -2.62688,-3.84067 -3.1925,-4.7467 -3.90593,-6.25669 -0.98828,-2.09169 -1.97678,-5.10586 -2.59144,-7.90187 -0.36167,-1.64519 -0.47409,-3.28527 -0.46601,-6.79847 0.01,-4.15989 0.0816,-4.89146 0.70958,-7.20216 1.72099,-6.33294 4.71451,-11.5615 9.20001,-16.06903 2.83787,-2.8518 4.44299,-3.96486 9.12813,-6.32984 2.71718,-1.37159 2.39755,-1.39934 -0.53144,-0.0461 -1.24345,0.57448 -2.19003,0.92997 -2.10351,0.78997 0.18026,-0.29167 1.56109,-1.0379 4.22245,-2.2819 2.32125,-1.08503 1.90218,-1.1389 -0.65539,-0.0842 -1.10819,0.45698 -1.78752,0.63307 -1.60805,0.41682 0.17092,-0.20594 1.37154,-0.82361 2.66806,-1.37261 2.74019,-1.16031 2.99389,-1.48693 0.39519,-0.50878 -0.97961,0.36872 -1.8954,0.59976 -2.0351,0.51342 -0.1397,-0.0863 -0.9131,0.28064 -1.71866,0.81551 -0.80557,0.53486 -1.71297,1.0203 -2.01646,1.07875 -0.30349,0.0584 -0.98119,0.52556 -1.50601,1.03803 -1.86249,1.81868 -1.41605,0.89926 0.52991,-1.09133 1.18239,-1.2095 1.58488,-1.73356 1.00082,-1.30314 -1.43824,1.05992 -4.22724,4.4049 -3.08322,3.69786 0.19077,-0.11791 0.23358,-0.0725 0.11401,0.12099 -0.1053,0.17038 -0.29212,0.24757 -0.41514,0.17154 -0.12302,-0.076 -0.84586,0.5471 -1.6063,1.38474 -1.47997,1.63022 -1.49109,1.50389 -0.0523,-0.59367 l 0.90745,-1.32292 -0.8349,0.92604 c -0.4592,0.50932 -1.39205,1.85013 -2.07301,2.97958 -0.68095,1.12944 -1.2751,1.94254 -1.32032,1.80688 -0.17482,-0.52448 1.97121,-4.1396 4.80585,-8.09574 0.71415,-0.99669 0.71714,-1.01152 0.053,-0.26259 -0.38715,0.43656 -1.35388,1.70633 -2.14828,2.82172 -1.31421,1.84521 -1.96544,3.08768 -3.83919,7.32468 -1.00978,2.28336 -0.88896,1.12429 0.23608,-2.26476 1.54738,-4.66129 3.22084,-7.24229 7.4408,-11.47604 4.78181,-4.79743 10.531,-7.89066 17.47677,-9.40299 3.51972,-0.76636 9.750639,-0.65971 13.890629,0.23775 1.74625,0.37856 3.65125,0.86216 4.23333,1.07467 2.57258,0.93924 5.51391,2.34228 7.52435,3.5892 1.19617,0.74189 2.2321,1.34889 2.30207,1.34889 0.32798,0 2.8485,2.12607 5.12254,4.32089 4.04701,3.90603 7.60314,9.41 8.9546,13.85938 2.42435,7.98165 2.45853,13.37542 0.12953,20.44465 -1.90701,5.78835 -6.66442,12.75578 -11.56511,16.93758 -2.35168,2.00671 -6.00483,4.27407 -8.16336,5.06667 -0.9178,0.33701 -1.44691,0.66888 -1.34062,0.84086 0.12028,0.19462 0.20912,0.18353 0.28204,-0.0352 0.0585,-0.17564 0.2101,-0.25528 0.33679,-0.17699 0.12669,0.0783 0.66684,-0.04 1.20034,-0.26293 1.20717,-0.50439 1.51549,-0.50844 0.64079,-0.008 -0.79722,0.45574 -0.55239,0.51667 0.37613,0.0936 0.36609,-0.1668 0.59142,-0.42333 0.50074,-0.57005 -0.0913,-0.14771 -0.0337,-0.18573 0.12894,-0.0852 0.30064,0.18581 2.16919,-0.47178 2.16919,-0.7634 0,-0.0888 -0.13746,-0.0764 -0.30546,0.0274 -0.19534,0.12073 -0.23338,0.0722 -0.10553,-0.13471 0.10996,-0.17793 0.37267,-0.25722 0.58379,-0.17621 0.21112,0.081 0.32081,0.0453 0.24375,-0.0794 -0.077,-0.12467 0.71481,-0.79515 1.75969,-1.48995 3.09503,-2.05805 5.69079,-4.04545 6.83554,-5.2335 0.59016,-0.61248 0.99385,-0.90524 0.8971,-0.65058 -0.0968,0.25466 -0.28926,0.46302 -0.4278,0.46302 -0.13854,0 -0.18897,0.10182 -0.11206,0.22626 0.23433,0.37915 -2.97887,5.57765 -5.03334,8.14324 -2.79833,3.49451 -6.81532,6.65011 -11.34714,8.91389 -5.3932,2.69408 -12.61898,3.85767 -18.520829,2.98248 z m 19.711459,-10.84485 c 0,-0.0572 -0.18478,-0.17489 -0.41062,-0.26155 -0.23546,-0.0904 -0.34166,-0.046 -0.24897,0.10398 0.15538,0.25141 0.65959,0.37186 0.65959,0.15757 z m -38.099999,-0.26049 c 0,-0.055 -0.20836,-0.2633 -0.46303,-0.46302 -0.41964,-0.32911 -0.429,-0.31975 -0.0999,0.0999 0.34565,0.44073 0.56292,0.58089 0.56292,0.36313 z m 29.419879,-0.66533 c 3.56763,-0.75052 6.27179,-1.86074 9.20928,-3.78096 3.66163,-2.39358 7.41843,-6.39883 9.15198,-9.75723 0.40862,-0.79161 0.84848,-1.51214 0.97746,-1.60117 0.12898,-0.089 0.22434,-0.23786 0.21191,-0.33073 -0.0837,-0.62544 0.0154,-0.97039 0.23896,-0.83219 0.14488,0.0896 0.1971,-0.006 0.11707,-0.21485 -0.0795,-0.20708 0.0112,-0.54068 0.20147,-0.74135 0.19027,-0.20066 0.34915,-0.4839 0.35306,-0.62942 0.004,-0.14553 0.29171,-1.39568 0.63955,-2.77813 1.84585,-7.3361 -0.18549,-17.34819 -4.72393,-23.28333 -4.16158,-5.44231 -10.20028,-9.7542 -15.59991,-11.13899 -2.67471,-0.68596 -7.66121,-0.92286 -11.066789,-0.52576 -2.73551,0.31897 -6.58545,1.40754 -8.62048,2.43743 -1.50961,0.76399 -5.7058,3.57835 -6.61151,4.4343 -6.28606,5.94069 -9.56507,14.62884 -8.66748,22.96558 1.02176,9.49004 5.37128,17.05445 12.65286,22.00504 4.04808,2.7522 6.68609,3.73808 11.69578,4.37093 1.97865,0.24996 7.362609,-0.0779 9.840719,-0.59917 z m -9.111739,-7.85395 c -5.51815,-0.84552 -10.4095,-4.00734 -13.70362,-8.85814 -3.85271,-5.67338 -4.38073,-13.85647 -1.30508,-20.22582 1.5786,-3.26909 4.16699,-6.10724 7.24495,-7.94403 3.50344,-2.09068 5.86753,-2.8134 9.723309,-2.97245 3.66154,-0.15104 6.06937,0.29112 8.84775,1.62475 5.90289,2.83342 9.68227,7.22204 11.27298,13.09022 0.76498,2.82203 0.76498,7.57266 0,10.3947 -1.94754,7.18452 -7.79476,12.9202 -14.87177,14.5881 -2.58524,0.60929 -4.64347,0.69571 -7.208519,0.30267 z m 6.620799,-11.74631 c 2.06779,-0.97823 4.09912,-3.02985 4.68085,-4.72762 0.92324,-2.69446 0.77188,-5.65299 -0.40958,-8.00543 -0.73142,-1.45636 -3.19491,-3.55639 -4.9412,-4.21219 -2.14747,-0.80646 -4.924929,-0.6624 -6.944429,0.36018 -2.04949,1.03777 -3.85306,2.88903 -4.5444,4.66457 -0.74881,1.92313 -0.80705,5.12918 -0.12867,7.08384 0.65419,1.88497 2.49436,3.77827 4.67481,4.80978 1.47207,0.6964 2.02111,0.81277 3.834719,0.81277 1.79791,0 2.36684,-0.11836 3.7779,-0.7859 z m -26.399779,17.11009 c 0,-0.0442 -0.44648,-0.4907 -0.99219,-0.99219 l -0.99218,-0.91179 0.9118,0.99218 c 0.84868,0.92351 1.07257,1.11384 1.07257,0.9118 z m -2.11666,-0.27548 c 0,-0.0502 -0.2679,-0.31809 -0.59532,-0.59531 l -0.59531,-0.50403 0.50403,0.59532 c 0.47366,0.55944 0.6866,0.71576 0.6866,0.50402 z m 3.175,-0.51647 c 0,-0.0432 -0.50602,-0.54925 -1.12448,-1.12448 l -1.12448,-1.04589 1.04588,1.12448 c 0.97266,1.04576 1.20308,1.24606 1.20308,1.04589 z m -7.40834,-2.40255 c 0,-0.0549 -0.20836,-0.26331 -0.46302,-0.46302 -0.41964,-0.32911 -0.429,-0.31975 -0.0999,0.0999 0.34564,0.44073 0.56292,0.58089 0.56292,0.36313 z m 58.340629,-1.48761 c 0.26339,-0.29104 0.41936,-0.52917 0.3466,-0.52917 -0.0728,0 -0.34779,0.23813 -0.61118,0.52917 -0.26339,0.29104 -0.41936,0.52917 -0.3466,0.52917 0.0728,0 0.34779,-0.23813 0.61118,-0.52917 z m -1.98438,-2.51354 c 0.49366,-0.50932 0.83803,-0.92604 0.76527,-0.92604 -0.0728,0 -0.53619,0.41672 -1.02985,0.92604 -0.49365,0.50932 -0.83802,0.92604 -0.76526,0.92604 0.0728,0 0.53619,-0.41672 1.02984,-0.92604 z m -0.79375,-0.52917 c 0.34178,-0.3638 0.56188,-0.66146 0.48912,-0.66146 -0.0728,0 -0.41192,0.29766 -0.7537,0.66146 -0.34177,0.3638 -0.56188,0.66146 -0.48911,0.66146 0.0728,0 0.41192,-0.29766 0.75369,-0.66146 z m -1.02458,-0.0661 c 0.32911,-0.41965 0.31975,-0.42901 -0.0999,-0.0999 -0.44073,0.34565 -0.58089,0.56292 -0.36313,0.56292 0.0549,0 0.2633,-0.20836 0.46302,-0.46302 z m 0.50112,-1.66165 c 0.7986,-1.12154 0.46524,-0.97396 -0.41918,0.18558 -0.40747,0.53422 -0.60574,0.88781 -0.4406,0.78574 0.16515,-0.10206 0.55205,-0.53916 0.85978,-0.97132 z m 4.28313,-1.44721 c 0.3475,-0.67145 0.0427,-0.33967 -1.21517,1.32292 l -1.00092,1.32292 0.97112,-1.05834 c 0.53411,-0.58208 1.09435,-1.29646 1.24497,-1.5875 z m -2.13842,1.25677 c 0.32911,-0.41964 0.31975,-0.429 -0.0999,-0.0999 -0.44073,0.34564 -0.58089,0.56291 -0.36313,0.56291 0.0549,0 0.2633,-0.20836 0.46302,-0.46302 z m 1.30196,-1.80453 c 0.45758,-0.66507 0.79042,-1.25076 0.73965,-1.30154 -0.0508,-0.0508 -0.47989,0.49338 -0.95358,1.20922 -1.08594,1.64108 -0.90528,1.71904 0.21393,0.0923 z m -1.78377,-0.35794 c 0.70641,-1.20315 0.36865,-0.98824 -0.48781,0.31039 -0.40788,0.61846 -0.57253,0.9848 -0.36589,0.81409 0.20665,-0.17071 0.59081,-0.67673 0.8537,-1.12448 z m 4.30073,-1.77992 c 1.33048,-2.13467 3.43705,-7.00989 3.70087,-8.56489 0.0859,-0.50618 -0.1991,0.0917 -0.63328,1.32864 -0.93138,2.65339 -2.22969,5.59103 -2.90579,6.57482 -0.82583,1.20168 -1.68222,2.68559 -1.54989,2.68559 0.0696,0 0.69421,-0.91087 1.38809,-2.02416 z m -4.9335,0.21618 c 0.39112,-0.76666 0.43089,-1.01424 0.1629,-1.01424 -0.20616,0 -0.29091,0.1658 -0.2025,0.39618 0.0981,0.25574 0.0434,0.32903 -0.15449,0.20675 -0.20656,-0.12767 -0.2497,-0.0414 -0.13229,0.26458 0.11741,0.30597 0.0743,0.39225 -0.13229,0.26458 -0.20657,-0.12766 -0.2497,-0.0414 -0.13229,0.26459 0.12756,0.33241 0.0804,0.39601 -0.17621,0.23744 -0.23316,-0.1441 -0.28725,-0.11435 -0.16164,0.0889 0.28298,0.45787 0.36593,0.39457 0.92881,-0.70877 z m 0.55167,0.22048 c 0.15576,-0.29104 0.22367,-0.52916 0.15091,-0.52916 -0.0728,0 -0.25973,0.23812 -0.4155,0.52916 -0.15576,0.29105 -0.22367,0.52917 -0.1509,0.52917 0.0728,0 0.25973,-0.23812 0.41549,-0.52917 z m 1.85208,0 c 0.15576,-0.29104 0.22367,-0.52916 0.15091,-0.52916 -0.0728,0 -0.25973,0.23812 -0.41549,0.52916 -0.15576,0.29105 -0.22367,0.52917 -0.15091,0.52917 0.0728,0 0.25973,-0.23812 0.41549,-0.52917 z m 1.32292,-0.5292 c 0.15576,-0.29104 0.22367,-0.52917 0.15091,-0.52917 -0.0728,0 -0.25973,0.23813 -0.41549,0.52917 -0.15577,0.29104 -0.22368,0.52916 -0.15091,0.52916 0.0728,0 0.25973,-0.23812 0.41549,-0.52916 z m -1.85209,-0.26459 c 0.15577,-0.29104 0.22368,-0.52916 0.15091,-0.52916 -0.0728,0 -0.25973,0.23812 -0.41549,0.52916 -0.15576,0.29105 -0.22367,0.52917 -0.15091,0.52917 0.0728,0 0.25973,-0.23812 0.41549,-0.52917 z m -0.38416,-0.81833 c 0.23275,-0.45009 0.37621,-0.86531 0.3188,-0.92272 -0.0574,-0.0574 -0.30239,0.31084 -0.54439,0.81833 -0.54414,1.14107 -0.35561,1.2283 0.22559,0.10439 z m 1.97167,-0.33467 c 0,-0.33616 -0.12222,-0.18606 -0.50793,0.62384 -0.29703,0.62369 -0.29153,0.63213 0.0964,0.14786 0.22631,-0.28247 0.41148,-0.62974 0.41148,-0.7717 z m 1.46854,-0.72539 c 0.37603,-0.74207 0.63933,-1.39359 0.58511,-1.44781 -0.0542,-0.0542 -0.41812,0.55292 -0.80866,1.34922 -0.39055,0.7963 -0.65385,1.44782 -0.58512,1.44782 0.0687,0 0.43263,-0.60715 0.80867,-1.34923 z m -3.33938,-0.89973 c 0,-0.14552 -0.17016,0.0331 -0.37812,0.39687 -0.20797,0.36381 -0.37813,0.78052 -0.37813,0.92605 0,0.14552 0.17016,-0.0331 0.37813,-0.39688 0.20796,-0.3638 0.37812,-0.78052 0.37812,-0.92604 z m 2.90699,-0.79375 c 0,-0.14552 -0.22815,0.15213 -0.50699,0.66146 -0.27884,0.50932 -0.50698,1.0451 -0.50698,1.19062 0,0.14552 0.22814,-0.15213 0.50698,-0.66146 0.27884,-0.50932 0.50699,-1.0451 0.50699,-1.19062 z m -3.91427,0.74745 c -0.31191,-0.53637 -0.38722,-0.36469 -0.13191,0.30065 0.0907,0.23646 0.22072,0.37419 0.28884,0.30607 0.0681,-0.0681 -0.002,-0.34115 -0.15693,-0.60672 z m 6.06913,-3.17524 c 0.80696,-2.34548 0.56999,-2.30722 -0.28826,0.0465 -0.42449,1.16417 -0.77139,2.1762 -0.7709,2.24896 0.002,0.33746 0.59594,-0.94914 1.05916,-2.2955 z m -2.54893,0.708 c 0.12297,-0.45971 0.10214,-0.54041 -0.0683,-0.26459 -0.13487,0.21828 -0.32483,0.69453 -0.42214,1.05834 -0.12297,0.4597 -0.10214,0.5404 0.0683,0.26458 0.13487,-0.21828 0.32483,-0.69453 0.42214,-1.05833 z m 1.77957,-2.03523 c 0.16066,-0.63802 0.21729,-1.23486 0.12585,-1.3263 -0.0914,-0.0914 -0.16877,0.0619 -0.17184,0.34087 -0.003,0.27891 -0.3002,1.34055 -0.6603,2.3592 -0.3601,1.01864 -0.64683,1.91161 -0.63719,1.98437 0.0397,0.29928 1.07276,-2.283 1.34348,-3.35814 z m -1.13593,-0.0814 c 0,-0.25016 -0.0841,-0.20125 -0.22739,0.13229 -0.12507,0.29104 -0.22739,0.70776 -0.22739,0.92604 0,0.25016 0.0841,0.20126 0.22739,-0.13229 0.12506,-0.29104 0.22739,-0.70776 0.22739,-0.92604 z m -1.10498,0.21497 c -0.0845,-0.21106 -0.14716,-0.14837 -0.15986,0.15986 -0.0115,0.27891 0.0511,0.43518 0.13897,0.34726 0.0879,-0.0879 0.0973,-0.31612 0.0209,-0.50712 z m -0.52917,-1.05833 c -0.0845,-0.21107 -0.14716,-0.14837 -0.15985,0.15985 -0.0115,0.27892 0.051,0.43519 0.13896,0.34727 0.0879,-0.0879 0.0973,-0.31612 0.0209,-0.50712 z m 0.78824,-0.28112 c -0.0734,-0.1819 -0.13346,-0.0331 -0.13346,0.33073 0,0.3638 0.0601,0.51263 0.13346,0.33073 0.0734,-0.1819 0.0734,-0.47956 0,-0.66146 z m 1.05833,-0.26458 c -0.0734,-0.1819 -0.13345,-0.0331 -0.13345,0.33073 0,0.3638 0.0601,0.51263 0.13345,0.33073 0.0734,-0.18191 0.0734,-0.47956 0,-0.66146 z m 2.38676,0.0165 c -0.0845,-0.21106 -0.14715,-0.14837 -0.15985,0.15986 -0.0115,0.27891 0.0511,0.43518 0.13896,0.34726 0.0879,-0.0879 0.0973,-0.31612 0.0209,-0.50712 z m -1.05833,-0.79375 c -0.0845,-0.21106 -0.14716,-0.14837 -0.15985,0.15986 -0.0115,0.27891 0.051,0.43518 0.13896,0.34726 0.0879,-0.0879 0.0973,-0.31612 0.0209,-0.50712 z m -2.12218,-0.5457 c -0.0734,-0.1819 -0.13345,-0.0331 -0.13345,0.33073 0,0.3638 0.06,0.51263 0.13345,0.33073 0.0734,-0.1819 0.0734,-0.47956 0,-0.66146 z m 1.05833,0 c -0.0734,-0.1819 -0.13345,-0.0331 -0.13345,0.33073 0,0.3638 0.0601,0.51263 0.13345,0.33073 0.0734,-0.1819 0.0734,-0.47956 0,-0.66146 z m 2.38125,0 c -0.0734,-0.1819 -0.13345,-0.0331 -0.13345,0.33073 0,0.3638 0.0601,0.51263 0.13345,0.33073 0.0734,-0.1819 0.0734,-0.47956 0,-0.66146 z m 1.33008,-0.39687 c -0.0666,-0.25467 -0.121,-0.0463 -0.121,0.46302 0,0.50932 0.0545,0.71768 0.121,0.46302 0.0666,-0.25466 0.0666,-0.67138 0,-0.92604 z m -2.38028,-0.78872 c -0.0671,-0.25743 -0.12639,-0.11087 -0.13178,0.32569 -0.005,0.43657 0.0495,0.64719 0.12197,0.46806 0.0725,-0.17913 0.0769,-0.53632 0.01,-0.79375 z m 1.32194,-0.5342 c -0.0665,-0.25466 -0.121,-0.0463 -0.121,0.46302 0,0.50932 0.0545,0.71768 0.121,0.46302 0.0666,-0.25466 0.0666,-0.67138 0,-0.92604 z m -2.3884,-0.13229 c -0.0734,-0.1819 -0.13346,-0.0331 -0.13346,0.33073 0,0.3638 0.0601,0.51263 0.13346,0.33073 0.0734,-0.18191 0.0734,-0.47956 0,-0.66146 z m 3.71606,-0.52608 c -0.0633,-0.32912 -0.11746,-0.12215 -0.1204,0.45993 -0.003,0.58208 0.0488,0.85136 0.11507,0.5984 0.0662,-0.25297 0.0686,-0.72922 0.005,-1.05833 z m -2.37851,-1.71924 c -0.0608,-0.40219 -0.1122,-0.13593 -0.11419,0.59167 -0.002,0.72761 0.0478,1.05666 0.11057,0.73124 0.0628,-0.32542 0.0644,-0.92073 0.004,-1.32291 z m 1.32579,-1.06197 c -0.0571,-0.54571 -0.10378,-0.0992 -0.10378,0.99218 0,1.09141 0.0467,1.53789 0.10378,0.99219 0.0571,-0.5457 0.0571,-1.43867 0,-1.98437 z m -70.655749,1.73632 c -0.0845,-0.21106 -0.14716,-0.14837 -0.15985,0.15986 -0.0115,0.27891 0.0511,0.43518 0.13896,0.34726 0.0879,-0.0879 0.0973,-0.31612 0.0209,-0.50712 z m 1.32292,0 c -0.0845,-0.21106 -0.14716,-0.14837 -0.15986,0.15986 -0.0115,0.27891 0.0511,0.43518 0.13897,0.34726 0.0879,-0.0879 0.0973,-0.31612 0.0209,-0.50712 z m 70.656099,-2.52417 c -0.0573,-0.54895 -0.1051,-0.16465 -0.10627,0.85399 -0.001,1.01865 0.0457,1.46779 0.10414,0.99809 0.0585,-0.4697 0.0594,-1.30313 0.002,-1.85208 z m -71.403199,0.7217 c 0,-0.25016 -0.0841,-0.20125 -0.2274,0.13229 -0.12506,0.29104 -0.22739,0.70776 -0.22739,0.92604 0,0.25016 0.0841,0.20126 0.22739,-0.13229 0.12507,-0.29104 0.2274,-0.70776 0.2274,-0.92604 z m 1.01168,0.74414 c -0.0845,-0.21107 -0.14716,-0.14837 -0.15985,0.15985 -0.0115,0.27892 0.0511,0.43519 0.13896,0.34727 0.0879,-0.0879 0.0973,-0.31612 0.0209,-0.50712 z m 1.63415,-1.27331 c 0,-0.25016 -0.0841,-0.20125 -0.22739,0.13229 -0.12507,0.29105 -0.22739,0.70776 -0.22739,0.92605 0,0.25015 0.0841,0.20125 0.22739,-0.1323 0.12506,-0.29104 0.22739,-0.70776 0.22739,-0.92604 z m -0.79818,-1.19062 c -7.4e-4,-0.14552 -0.16491,0.0926 -0.36481,0.52916 -0.1999,0.43657 -0.35976,0.97235 -0.35526,1.19063 0.004,0.21828 0.16868,-0.0198 0.36482,-0.52917 0.19614,-0.50932 0.356,-1.0451 0.35525,-1.19062 z m 1.80986,1.14101 c -0.0845,-0.21106 -0.14715,-0.14837 -0.15985,0.15986 -0.0115,0.27891 0.0511,0.43518 0.13896,0.34726 0.0879,-0.0879 0.0973,-0.31612 0.0209,-0.50712 z m -1.40911,-4.64674 c 0.53374,-1.05503 0.903,-1.91823 0.82057,-1.91823 -0.22669,0 -3.02822,5.89423 -3.01817,6.35 0.005,0.21828 0.2829,-0.25797 0.61796,-1.05833 0.33506,-0.80037 1.0459,-2.31842 1.57964,-3.37344 z m 1.22027,2.44739 c 0,-0.14552 -0.11542,-0.086 -0.25648,0.1323 -0.14107,0.21828 -0.25648,0.51593 -0.25648,0.66145 0,0.14553 0.11541,0.086 0.25648,-0.13229 0.14106,-0.21828 0.25648,-0.51594 0.25648,-0.66146 z m 1.05833,0 c 0,-0.14552 -0.11541,-0.086 -0.25648,0.1323 -0.14106,0.21828 -0.25648,0.51593 -0.25648,0.66145 0,0.14553 0.11542,0.086 0.25648,-0.13229 0.14107,-0.21828 0.25648,-0.51594 0.25648,-0.66146 z m -2.11666,-0.26458 c 0,-0.14552 -0.11542,-0.086 -0.25649,0.13229 -0.14106,0.21828 -0.25648,0.51594 -0.25648,0.66146 0,0.14552 0.11542,0.086 0.25648,-0.13229 0.14107,-0.21828 0.25649,-0.51594 0.25649,-0.66146 z m 2.30003,-2.95564 c -0.06,-0.06 -0.31559,0.40193 -0.56805,1.02643 -0.73186,1.81034 -0.73105,2.05017 0.002,0.5059 0.37145,-0.78282 0.6263,-1.47237 0.56634,-1.53233 z m -1.129,0.50824 c 0.52821,-1.05502 0.90086,-1.91822 0.8281,-1.91822 -0.14778,0 -1.99103,3.58643 -1.99103,3.87395 0,0.31281 0.17189,0.0237 1.16293,-1.95573 z m 2.11699,-0.26458 c 0.38376,-0.76398 0.63821,-1.38906 0.56545,-1.38906 -0.14918,0 -1.46412,2.52676 -1.46412,2.81343 0,0.29951 0.16061,0.045 0.89867,-1.42437 z m 1.05885,-0.52917 c 0.24052,-0.47294 0.37779,-0.85989 0.30503,-0.85989 -0.1524,0 -0.93963,1.4668 -0.93963,1.75075 0,0.27626 0.14347,0.0748 0.6346,-0.89086 z m 2.73301,-6.51246 c 0.69443,-0.74485 1.38166,-1.31562 1.52718,-1.26839 0.14552,0.0472 0.17502,-0.004 0.0656,-0.11313 -0.28171,-0.2817 0.60446,-1.19096 0.96198,-0.98704 0.16245,0.0926 0.20498,0.0689 0.0945,-0.0528 -0.11047,-0.12168 0.009,-0.47855 0.26458,-0.79306 0.25599,-0.31451 -0.5816,0.51009 -1.86132,1.83245 -1.99235,2.05874 -5.74619,7.13049 -5.74151,7.75727 8.3e-4,0.1118 0.77212,-0.9722 1.71396,-2.4089 0.94185,-1.43669 2.28062,-3.22159 2.97505,-3.96644 z m -5.18572,3.93278 0.2598,-0.52917 -0.43086,0.52917 c -0.23697,0.29104 -0.54777,0.76729 -0.69065,1.05833 l -0.25979,0.52917 0.43085,-0.52917 c 0.23698,-0.29104 0.54777,-0.76729 0.69065,-1.05833 z m 3.7445,-1.02444 c 0.5982,-0.96957 0.73582,-1.3064 0.34234,-0.83786 -0.36191,0.43095 -0.96508,1.38345 -1.34038,2.11667 -0.7563,1.47757 -0.49974,1.14883 0.99804,-1.27881 z m -0.33889,1.95048 c 0.15576,-0.29104 0.22367,-0.52917 0.1509,-0.52917 -0.0728,0 -0.25973,0.23813 -0.41549,0.52917 -0.15576,0.29104 -0.22367,0.52917 -0.15091,0.52917 0.0728,0 0.25973,-0.23813 0.4155,-0.52917 z m -1.81383,-1.65365 c 0.48794,-0.76398 1.30068,-1.86531 1.80608,-2.44739 0.73065,-0.84151 0.76533,-0.92282 0.16927,-0.39688 -0.85842,0.75745 -3.30757,4.23334 -2.98285,4.23334 0.0662,0 0.51955,-0.62508 1.0075,-1.38907 z m 2.66968,0.37552 c -0.0988,-0.25754 -0.0437,-0.32923 0.15752,-0.20487 0.17025,0.10522 0.30954,0.13178 0.30954,0.059 0,-0.40552 -0.54137,-0.37051 -0.76618,0.0495 -0.19655,0.36727 -0.17271,0.49248 0.0938,0.49248 0.20867,0 0.2941,-0.16484 0.20533,-0.39618 z m 0.64756,-0.74623 c -0.0948,-0.0948 0.0225,-0.3147 0.26057,-0.48878 0.34356,-0.25122 0.36157,-0.36056 0.0873,-0.53006 -0.21608,-0.13355 -0.28123,-0.10951 -0.17389,0.0642 0.0944,0.15275 -0.0138,0.3489 -0.24047,0.43588 -0.3728,0.14306 -0.31094,0.69106 0.078,0.69106 0.0884,0 0.0832,-0.0775 -0.0115,-0.17228 z m -1.7594,-3.13503 c 0.65957,-0.7276 1.36047,-1.56104 1.55754,-1.85208 0.19708,-0.29104 -0.30751,0.18521 -1.12131,1.05833 -0.81381,0.87313 -1.84981,2.12328 -2.30223,2.77813 -0.69887,1.01156 -0.71058,1.05135 -0.0779,0.26458 0.40958,-0.50932 1.28433,-1.52135 1.94391,-2.24896 z m 2.65301,1.60226 c -0.0156,-0.0889 0.2917,-0.43691 0.68283,-0.77335 0.54134,-0.46564 0.62785,-0.6632 0.36227,-0.82733 -0.22381,-0.13833 -0.28522,-0.11261 -0.17129,0.0717 0.0977,0.15805 -0.0849,0.47121 -0.40568,0.69591 -0.3208,0.2247 -0.61152,0.60094 -0.64603,0.83609 -0.0345,0.23516 -0.002,0.36704 0.0717,0.29307 0.074,-0.074 0.12174,-0.20722 0.10616,-0.29612 z m -0.51119,-0.61007 c 0.32911,-0.41964 0.31975,-0.429 -0.0999,-0.0999 -0.25466,0.19972 -0.46302,0.40807 -0.46302,0.46302 0,0.21776 0.21727,0.0776 0.56291,-0.36313 z m 0.76,-2.84427 c 0.93748,-0.94589 1.64497,-1.71979 1.57221,-1.71979 -0.0728,0 -0.89932,0.7739 -1.83679,1.71979 -0.93748,0.94589 -1.64498,1.71979 -1.57222,1.71979 0.0728,0 0.89932,-0.7739 1.8368,-1.71979 z m 48.418749,0.82615 c 0,-0.0549 -0.20836,-0.2633 -0.46302,-0.46302 -0.41964,-0.32911 -0.429,-0.31975 -0.0999,0.0999 0.34564,0.44073 0.56291,0.58089 0.56291,0.36313 z m -48.649589,-1.68605 c 0.32911,-0.41964 0.31975,-0.429 -0.0999,-0.0999 -0.25466,0.19972 -0.46302,0.40808 -0.46302,0.46302 0,0.21776 0.21728,0.0776 0.56292,-0.36313 z m 3.00896,-0.0661 c 0.26339,-0.29104 0.41936,-0.52917 0.3466,-0.52917 -0.0728,0 -0.34779,0.23813 -0.61118,0.52917 -0.26339,0.29104 -0.41936,0.52917 -0.3466,0.52917 0.0728,0 0.34779,-0.23813 0.61118,-0.52917 z m 42.994799,0.44878 c 0,-0.0442 -0.44649,-0.4907 -0.99219,-0.99219 l -0.99219,-0.9118 0.9118,0.99219 c 0.84868,0.9235 1.07258,1.11384 1.07258,0.9118 z m 1.5875,-0.0109 c 0,-0.0502 -0.26789,-0.3181 -0.59531,-0.59531 l -0.59532,-0.50403 0.50403,0.59531 c 0.47366,0.55945 0.6866,0.71576 0.6866,0.50403 z m 1.05833,-0.80236 c 0,-0.0549 -0.20836,-0.2633 -0.46302,-0.46302 -0.41964,-0.32911 -0.429,-0.31975 -0.0999,0.0999 0.34564,0.44073 0.56291,0.58089 0.56291,0.36313 z m -47.105829,-0.96919 c 1.19545,-1.02182 0.90219,-1.01367 -0.38688,0.0108 -0.54934,0.43656 -0.89314,0.78891 -0.76399,0.783 0.12916,-0.006 0.64704,-0.3631 1.15087,-0.79375 z m 1.20062,0.0108 c 0.26339,-0.29104 0.41936,-0.52917 0.3466,-0.52917 -0.0728,0 -0.34779,0.23813 -0.61118,0.52917 -0.26339,0.29104 -0.41936,0.52917 -0.3466,0.52917 0.0728,0 0.34779,-0.23813 0.61118,-0.52917 z m 2.21236,-0.35278 c 0.21879,-0.26362 0.20469,-0.35277 -0.0558,-0.35277 -0.19172,0 -0.34858,0.15875 -0.34858,0.35277 0,0.19403 0.0251,0.35278 0.0558,0.35278 0.0307,0 0.18755,-0.15875 0.34858,-0.35278 z m -0.88944,-1.36222 0.52916,-0.43086 -0.52916,0.25979 c -0.29104,0.14289 -0.76729,0.45368 -1.05834,0.69066 l -0.52916,0.43085 0.52916,-0.25979 c 0.29105,-0.14288 0.7673,-0.45368 1.05834,-0.69065 z m 42.465619,0.57628 c 0,-0.0442 -0.44648,-0.4907 -0.99218,-0.99219 l -0.99219,-0.9118 0.9118,0.99219 c 0.84868,0.92351 1.07257,1.11384 1.07257,0.9118 z m 1.85209,-0.0195 c 0,-0.0549 -0.20836,-0.2633 -0.46302,-0.46302 -0.41965,-0.32911 -0.42901,-0.31975 -0.0999,0.0999 0.34565,0.44073 0.56292,0.58088 0.56292,0.36312 z m 3.43958,-0.25597 c 0,-0.0502 -0.26789,-0.3181 -0.59531,-0.59531 l -0.59531,-0.50403 0.50402,0.59531 c 0.47367,0.55945 0.6866,0.71576 0.6866,0.50403 z m -10.05417,-0.53778 c 0,-0.0549 -0.20836,-0.2633 -0.46302,-0.46302 -0.41964,-0.32911 -0.429,-0.31975 -0.0999,0.0999 0.34564,0.44073 0.56291,0.58088 0.56291,0.36312 z m -40.491409,-3.37608 c 0.0201,-0.33383 5.32978,-4.50977 7.20098,-5.66344 1.05213,-0.64869 1.77742,-1.17943 1.61175,-1.17943 -0.51468,0 -4.85936,3.05607 -7.12036,5.00849 -1.18483,1.02313 -2.59205,2.48767 -3.12715,3.25452 l -0.9729,1.39428 1.19876,-1.32292 c 0.65931,-0.7276 1.20333,-1.39878 1.20892,-1.4915 z m 41.549749,2.58223 c 0,-0.0549 -0.20836,-0.2633 -0.46302,-0.46302 -0.41965,-0.32911 -0.42901,-0.31975 -0.0999,0.0999 0.34565,0.44073 0.56292,0.58088 0.56292,0.36312 z m 3.96875,0.0137 c 0,-0.0474 -0.32742,-0.37482 -0.72761,-0.72761 l -0.7276,-0.64143 0.64143,0.7276 c 0.59952,0.68006 0.81378,0.84894 0.81378,0.64144 z m 5.55625,-0.26459 c 0,-0.0474 -0.32742,-0.37481 -0.72761,-0.7276 l -0.7276,-0.64143 0.64143,0.7276 c 0.59952,0.68006 0.81378,0.84894 0.81378,0.64143 z M 83.519271,137.3233 c -0.0815,-0.0815 -0.29496,-1.6e-4 -0.47443,0.18066 -0.25937,0.2613 -0.22897,0.29169 0.14811,0.14811 0.26094,-0.0994 0.40778,-0.24731 0.32632,-0.32877 z m 41.135709,0.37818 c 0,-0.055 -0.20836,-0.26331 -0.46302,-0.46302 -0.41965,-0.32911 -0.42901,-0.31975 -0.0999,0.0999 0.34565,0.44073 0.56292,0.58089 0.56292,0.36313 z m 1.05833,-0.77245 c 0,-0.0432 -0.50601,-0.54925 -1.12448,-1.12448 l -1.12448,-1.04589 1.04589,1.12448 c 0.97266,1.04576 1.20307,1.24606 1.20307,1.04589 z m 3.70417,-0.26459 c 0,-0.0432 -0.50602,-0.54924 -1.12448,-1.12448 l -1.12448,-1.04588 1.04588,1.12448 c 0.97267,1.04575 1.20308,1.24606 1.20308,1.04588 z m -6.35,-0.27727 c 0,-0.0502 -0.26789,-0.3181 -0.59531,-0.59531 l -0.59532,-0.50403 0.50403,0.59531 c 0.47366,0.55945 0.6866,0.71576 0.6866,0.50403 z m -40.084379,-2.66923 c 2.69944,-1.79472 5.32562,-3.15857 7.67292,-3.98475 1.01864,-0.35853 1.65131,-0.65439 1.40591,-0.65746 -1.90439,-0.0238 -10.91278,4.90859 -12.42009,6.80044 -0.22422,0.28142 -0.0596,0.22496 0.43084,-0.14773 0.43657,-0.33177 1.74625,-1.2365 2.91042,-2.0105 z m 36.644789,1.60232 c 0,-0.0549 -0.20836,-0.26331 -0.46302,-0.46302 -0.41964,-0.32911 -0.429,-0.31975 -0.0999,0.0999 0.34564,0.44073 0.56291,0.58089 0.56291,0.36313 z m -41.185949,-1.97009 c 1.50903,-1.42581 3.92236,-3.42146 5.10235,-4.21928 0.41639,-0.28153 0.3897,-0.28524 -0.16431,-0.0228 -1.20555,0.57098 -7.30607,5.78293 -6.76885,5.78293 0.11003,0 0.9339,-0.69336 1.83081,-1.54081 z m 8.57054,1.11638 c -0.0879,-0.0879 -0.31612,-0.0973 -0.50711,-0.0209 -0.21107,0.0845 -0.14838,0.14716 0.15985,0.15985 0.27891,0.0115 0.43518,-0.051 0.34726,-0.13896 z m -0.25912,-4.26858 c 1.12782,-0.61663 1.92652,-1.12265 1.77489,-1.12448 -0.44772,-0.005 -4.89907,2.60961 -6.41321,3.76757 -2.18401,1.67024 -1.89288,1.66394 0.46132,-0.01 1.16953,-0.83158 3.04918,-2.01648 4.177,-2.63311 z m -2.15178,3.47024 c 0.65095,-0.38148 1.12799,-0.74916 1.06008,-0.81707 -0.12587,-0.12587 -2.54627,1.20828 -2.54627,1.40353 0,0.22042 0.3348,0.0883 1.48619,-0.58646 z m 37.936729,0.59371 c 0,-0.0549 -0.20836,-0.2633 -0.46302,-0.46302 -0.41964,-0.32911 -0.429,-0.31975 -0.0999,0.0999 0.34564,0.44073 0.56291,0.58088 0.56291,0.36312 z m 1.05833,-1.05833 c 0,-0.0549 -0.20835,-0.2633 -0.46302,-0.46302 -0.41964,-0.32911 -0.429,-0.31975 -0.0999,0.0999 0.34564,0.44073 0.56291,0.58089 0.56291,0.36313 z m -34.732069,-0.32454 c -0.0879,-0.0879 -0.31612,-0.0973 -0.50712,-0.0209 -0.21107,0.0845 -0.14837,0.14716 0.15985,0.15985 0.27892,0.0115 0.43519,-0.051 0.34727,-0.13896 z m -1.13593,-0.87913 c 0.71827,-0.32861 2.32562,-0.93708 3.57187,-1.35215 2.63359,-0.87714 2.51731,-1.04777 -0.1536,-0.2254 -2.02343,0.623 -5.1211,1.96505 -5.1211,2.21868 0,0.0905 0.0893,0.11766 0.19844,0.0604 0.10914,-0.0572 0.78611,-0.37294 1.50439,-0.70155 z m 37.190919,0.40992 c 0,-0.0549 -0.20836,-0.2633 -0.46302,-0.46302 -0.41964,-0.32911 -0.429,-0.31975 -0.0999,0.0999 0.34564,0.44073 0.56291,0.58089 0.56291,0.36313 z m -5.55625,-0.55226 c 0,-0.0676 -0.26789,-0.2528 -0.59531,-0.41147 -0.57167,-0.27703 -0.57491,-0.27214 -0.0817,0.12299 0.53982,0.43248 0.67703,0.49095 0.67703,0.28848 z m -24.942489,-2.15353 c -0.0879,-0.0879 -0.31612,-0.0973 -0.50712,-0.0209 -0.21107,0.0845 -0.14837,0.14716 0.15985,0.15985 0.27892,0.0115 0.43519,-0.051 0.34727,-0.13896 z m 1.19614,-0.27996 c -0.18191,-0.0734 -0.47956,-0.0734 -0.66146,0 -0.1819,0.0734 -0.0331,0.13345 0.33073,0.13345 0.3638,0 0.51263,-0.0601 0.33073,-0.13345 z m 1.98437,-0.27174 c -0.25466,-0.0666 -0.67138,-0.0666 -0.92604,0 -0.25466,0.0665 -0.0463,0.121 0.46302,0.121 0.50932,0 0.71768,-0.0545 0.46302,-0.121 z m -4.23884,-0.24205 c -0.0879,-0.0879 -0.31613,-0.0973 -0.50712,-0.0209 -0.21107,0.0845 -0.14838,0.14716 0.15985,0.15985 0.27891,0.0115 0.43518,-0.051 0.34727,-0.13896 z m -5.56072,-2.12114 c -0.11459,-0.11459 -3.62804,1.74113 -3.62804,1.91624 0,0.071 0.83677,-0.31069 1.8595,-0.84812 1.02273,-0.53743 1.81857,-1.01808 1.76854,-1.06812 z m 2.85425,1.75182 c 0.34891,-0.14993 0.39398,-0.23234 0.13229,-0.24193 -0.21828,-0.008 -0.57547,0.10087 -0.79375,0.24193 -0.48365,0.31256 -0.0659,0.31256 0.66146,0 z m 3.7648,0.10473 c -0.0879,-0.0879 -0.31612,-0.0973 -0.50712,-0.0209 -0.21107,0.0845 -0.14837,0.14715 0.15985,0.15985 0.27892,0.0115 0.43519,-0.0511 0.34727,-0.13897 z m 25.207069,0.0559 c 0,-0.0572 -0.18477,-0.17489 -0.41061,-0.26155 -0.23546,-0.0904 -0.34166,-0.046 -0.24897,0.10398 0.15538,0.25141 0.65958,0.37186 0.65958,0.15757 z m -31.610699,-0.63866 c -0.0815,-0.0815 -0.29496,-1.7e-4 -0.47444,0.18065 -0.25936,0.26131 -0.22897,0.2917 0.14812,0.14811 0.26093,-0.0994 0.40778,-0.2473 0.32632,-0.32876 z m 7.59977,0.30284 c -0.18191,-0.0734 -0.47956,-0.0734 -0.66146,0 -0.1819,0.0734 -0.0331,0.13345 0.33073,0.13345 0.3638,0 0.51263,-0.0601 0.33073,-0.13345 z m -3.37344,-0.35394 c 0.34891,-0.14994 0.39398,-0.23235 0.13229,-0.24194 -0.21828,-0.008 -0.57547,0.10087 -0.79375,0.24194 -0.48365,0.31256 -0.0659,0.31256 0.66146,0 z m 4.96597,0.091 c -0.17913,-0.0725 -0.53632,-0.0769 -0.79375,-0.01 -0.25743,0.0671 -0.11087,0.12638 0.32569,0.13177 0.43657,0.005 0.64719,-0.0495 0.46806,-0.12197 z m -8.00868,-0.35562 c 0.21828,-0.14106 0.27781,-0.25648 0.13229,-0.25648 -0.14552,0 -0.44318,0.11542 -0.66146,0.25648 -0.21828,0.14107 -0.27781,0.25648 -0.13229,0.25648 0.14552,0 0.44318,-0.11541 0.66146,-0.25648 z m 10.52027,0.0828 c -0.25296,-0.0662 -0.72921,-0.0686 -1.05833,-0.005 -0.32912,0.0633 -0.12215,0.11747 0.45993,0.1204 0.58209,0.003 0.85137,-0.0488 0.5984,-0.11506 z m -8.4036,-0.92118 c 0.27582,-0.17042 0.19512,-0.19125 -0.26459,-0.0683 -0.3638,0.0973 -0.84005,0.28728 -1.05833,0.42215 -0.27583,0.17042 -0.19512,0.19124 0.26458,0.0683 0.3638,-0.0973 0.84006,-0.28728 1.05834,-0.42214 z m 3.96875,0.30922 c 0.52376,-0.16774 0.5513,-0.21184 0.13229,-0.21184 -0.29104,0 -0.82682,0.0953 -1.19063,0.21184 -0.52376,0.16774 -0.5513,0.21183 -0.13229,0.21183 0.29104,0 0.82682,-0.0953 1.19063,-0.21183 z m 20.902079,-0.26459 c -0.21828,-0.14106 -0.51594,-0.25648 -0.66146,-0.25648 -0.14552,0 -0.086,0.11542 0.13229,0.25648 0.21829,0.14107 0.51594,0.25648 0.66146,0.25648 0.14552,0 0.086,-0.11541 -0.13229,-0.25648 z m -18.978819,-0.17355 c -0.17913,-0.0725 -0.53632,-0.0769 -0.79375,-0.01 -0.25743,0.0671 -0.11087,0.12638 0.32569,0.13177 0.43657,0.005 0.64719,-0.0495 0.46806,-0.12197 z m 2.24701,-0.27282 c -0.25297,-0.0662 -0.72922,-0.0686 -1.05833,-0.005 -0.32912,0.0633 -0.12215,0.11747 0.45993,0.12041 0.58208,0.003 0.85136,-0.0489 0.5984,-0.11507 z m -9.99111,-0.34738 c 0.21828,-0.14106 0.27782,-0.25648 0.13229,-0.25648 -0.14552,0 -0.44317,0.11542 -0.66145,0.25648 -0.21829,0.14107 -0.27782,0.25648 -0.1323,0.25648 0.14553,0 0.44318,-0.11541 0.66146,-0.25648 z m 4.36563,0 c 0.33354,-0.14332 0.38245,-0.22739 0.13229,-0.22739 -0.21828,0 -0.635,0.10233 -0.92604,0.22739 -0.33355,0.14333 -0.38245,0.22739 -0.13229,0.22739 0.21828,0 0.635,-0.10232 0.92604,-0.22739 z m 1.52135,-0.43981 c -0.1819,-0.0734 -0.47955,-0.0734 -0.66146,0 -0.1819,0.0734 -0.0331,0.13345 0.33073,0.13345 0.3638,0 0.51263,-0.0601 0.33073,-0.13345 z m -3.63802,-0.35394 c 0.34892,-0.14993 0.39398,-0.23234 0.13229,-0.24193 -0.21828,-0.008 -0.57547,0.10087 -0.79375,0.24193 -0.48365,0.31256 -0.0659,0.31256 0.66146,0 z m 4.96094,0.0894 c -0.1819,-0.0734 -0.47956,-0.0734 -0.66146,0 -0.1819,0.0734 -0.0331,0.13345 0.33073,0.13345 0.3638,0 0.51263,-0.0601 0.33073,-0.13345 z m 2.25204,-0.27115 c -0.25296,-0.0662 -0.72921,-0.0686 -1.05833,-0.005 -0.32912,0.0633 -0.12215,0.11747 0.45993,0.12041 0.58209,0.003 0.85137,-0.0488 0.5984,-0.11507 z m -3.97734,-0.77181 c -0.0879,-0.0879 -0.31613,-0.0973 -0.50712,-0.0209 -0.21107,0.0845 -0.14837,0.14716 0.15985,0.15986 0.27891,0.0115 0.43518,-0.0511 0.34727,-0.13897 z m 1.19613,-0.27996 c -0.1819,-0.0734 -0.47956,-0.0734 -0.66146,0 -0.1819,0.0734 -0.0331,0.13345 0.33073,0.13345 0.3638,0 0.51263,-0.06 0.33073,-0.13345 z m 1.5875,-0.26458 c -0.1819,-0.0734 -0.47956,-0.0734 -0.66146,0 -0.1819,0.0734 -0.0331,0.13345 0.33073,0.13345 0.3638,0 0.51263,-0.0601 0.33073,-0.13345 z m 8.064279,0.0154 c -0.0879,-0.0879 -0.31612,-0.0973 -0.50712,-0.0209 -0.21106,0.0845 -0.14837,0.14715 0.15986,0.15985 0.27891,0.0115 0.43518,-0.051 0.34726,-0.13897 z m -3.96324,-0.29747 c -0.5457,-0.0571 -1.43867,-0.0571 -1.984369,0 -0.5457,0.0571 -0.0992,0.10379 0.992189,0.10379 1.0914,0 1.53789,-0.0467 0.99218,-0.10379 z"
       id="path1" /></g></svg>
